General
      Complete name : The.Negotiator.1998.BRRip.H264.AAC.5.1ch.Gopo.mp4
      Format : MPEG-4
      Format profile : Base Media
      Codec ID : isom
      File size : 2.26 GiB
      Duration : 2h 19mn
      Overall bit rate : 2 313 Kbps
      Encoded date : UTC 2010-01-24 13:44:05
      Tagged date : UTC 2010-01-24 13:44:05
   Video #1
      ID : 1
      Format : AVC
      Format/Info : Advanced Video Codec
      Format profile : High@L4.1
      Format settings, CABAC : Yes
      Format settings, ReFrames : 5 frames
      Codec ID : avc1
      Codec ID/Info : Advanced Video Coding
      Duration : 2h 19mn
      Bit rate mode : Variable
      Bit rate : 1 975 Kbps
      Maximum bit rate : 19.5 Mbps
      Width : 1 280 pixels
      Height : 536 pixels
      Display aspect ratio : 2.35:1
      Frame rate mode : Constant
      Frame rate : 23.976 fps
      Resolution : 24 bits
      Colorimetry : 4:2:0
      Scan type : Progressive
      Bits/(Pixel*Frame) : 0.120
      Stream size : 1.93 GiB (85%)
      Writing library : x264 core 83 r1391 3d0f110
      Encoding settings : cabac=1 / ref=5 / deblock=1:0:0 / analyse=0x3:0x113 / me=umh / subme=7 / psy=1 / psy_rd=1.0:0.0 / mixed_ref=1 / me_range=16 / chroma_me=1 / trellis=2 / 8x8dct=1 / cqm=0 / deadzone=21,11 / fast_pskip=1 / chroma_qp_offset=-2 / threads=1 / sliced_threads=0 / nr=0 / decimate=1 / mbaff=0 / constrained_intra=0 / bframes=3 / b_pyramid=0 / b_adapt=2 / b_bias=0 / direct=3 / wpredb=1 / wpredp=2 / keyint=250 / keyint_min=25 / scenecut=40 / intra_refresh=0 / rc_lookahead=30 / rc=2pass / mbtree=1 / bitrate=1975 / ratetol=1.0 / qcomp=0.50 / qpmin=10 / qpmax=51 / qpstep=4 / cplxblur=20.0 / qblur=0.5 / vbv_maxrate=24000 / vbv_bufsize=24000 / ip_ratio=1.10 / aq=1:1.00
      Encoded date : UTC 2010-01-22 20:46:24
      Tagged date : UTC 2010-01-24 13:46:24
   Audio #2
      ID : 2
      Format : AAC
      Format/Info : Advanced Audio Codec
      Format version : Version 4
      Format profile : LC
      Format settings, SBR : No
      Codec ID : 40
      Duration : 2h 19mn
      Bit rate mode : Variable
      Bit rate : 335 Kbps
      Maximum bit rate : 480 Kbps
      Channel(s) : 6 channels
      Channel positions : Front: L C R, Rear: L R, LFE
      Sampling rate : 48.0 KHz
      Resolution : 16 bits
      Stream size : 334 MiB (14%)
      Encoded date : UTC 2010-01-24 13:46:04
      Tagged date : UTC 2010-01-24 13:46:24	Sample : YES
	Subtitle : English,Romanian

PLOT


In a desperate attempt to prove his innocence, a skilled police negotiator accused of corruption and murder takes hostages in a government office to gain the time he needs to find the truth.
Director: F. Gary Gray
CASTING 
     
      Samuel L. Jackson	... 	Lt. Danny Roman
	Kevin Spacey	... 	Lt. Chris Sabian
	David Morse	... 	Cmdr. Adam Beck
	Ron Rifkin	... 	Cmdr. Grant Frost
	John Spencer	... 	Chief Al Travis
	J.T. Walsh	... 	Insp. Terence Niebaum
	Siobhan Fallon	... 	Maggie
	Paul Giamatti	... 	Rudy Timmons
	Regina Taylor	... 	Karen Roman
	Bruce Beatty	... 	Markus
	Michael Cudlitz	... 	Palermo
	Carlos Gómez	... 	Eagle
	Tim Kelleher	... 	Argento
	Dean Norris	... 	Scott
	Nestor Serrano	... 	Hellman

SOURCE: The.Negociator.1998.720p.BluRay.x264.RoSubbed-HDCLASSiCS.mkv

Notes: For best performance I suggest you to use KMPlayer(find it with google) for playback
I haven't tested the movies on a PS3 or Xbox or other devices than PC because I don't own one of them but feel free to test them if you have the oportunity.
